# xmcd CD database file
#
# Track frame offsets:
#	150
#	10025
#	22240
#	35617
#	63945
#	76962
#	91052
#	104875
#	117505
#	135472
#	147195
#	168245
#	179437
#	202932
#	215917
#	227832
#	242210
#	254085
#	265352
#	277080
#	290517
#	302945
#	316017
#	327140
#
# Disc length: 4665 seconds
#
# Revision: 4
# Processed by: cddbd v1.4PL0 Copyright (c) Steve Scherf et al.
# Submitted via: CDex 1.40Release
#
DISCID=6c123718
DTITLE=Pete Fountain - Smooth and Mellow
DYEAR=1900
DGENRE=Big Band
TTITLE0=A Closer Walk
TTITLE1=Maria Elena
TTITLE2=My Blue Heaven
TTITLE3=Oh, Lady Be Good
TTITLE4=You're Nobody 'Til Somebody Loves You
TTITLE5=Blue Skies
TTITLE6=Do You Know What It Means to Miss New Orleans
TTITLE7=Moonglow
TTITLE8=Just One of Those Things
TTITLE9=Petite Fleur
TTITLE10=Fascination Medly
TTITLE11=High Society
TTITLE12=Stranger On The Shore
TTITLE13=Careless Love
TTITLE14=Indiana
TTITLE15=Hello Dolly!
TTITLE16=Over The Waves
TTITLE17=When The Saints Go Marching In
TTITLE18=When My Baby Smiles At Me
TTITLE19=Put On Your Old Grey  Bonnet
TTITLE20=Bill Bailey, Won't You Please Come Home
TTITLE21=It's Been a Long, Long Time
TTITLE22=The Darktown Strutters' Ball
TTITLE23=Up A Lazy River
EXTD=ID3G: 96
EXTT0=
EXTT1=
EXTT2=
EXTT3=
EXTT4=
EXTT5=
EXTT6=
EXTT7=
EXTT8=
EXTT9=
EXTT10=
EXTT11=
EXTT12=
EXTT13=
EXTT14=
EXTT15=
EXTT16=
EXTT17=
EXTT18=
EXTT19=
EXTT20=
EXTT21=
EXTT22=
EXTT23=
PLAYORDER=
